# xmcd
#
# Track frame offsets: 
#        150
#        24423
#        38884
#        54077
#        66218
#        89517
#        104161
#        116744
#        130096
#        145193
#        158249
#        172703
#        190679
#
# Disc length: 2671 seconds
#
# Revision: 0
# Processed by: cddbd v1.5.2PL0 Copyright (c) Steve Scherf et al.
# Submitted via: ExactAudioCopy v0.95b4
#
DISCID=aa0a6d0d
DTITLE=Shit City - God Bless Our Home
DYEAR=2007
DGENRE=Country
TTITLE0=Looking Forward
TTITLE1=Leave Evil Lady
TTITLE2=City Lights
TTITLE3=Weed Smoke
TTITLE4=Lonely Queen
TTITLE5=Once In A While
TTITLE6=Twin Towers
TTITLE7=Girl From Too Far
TTITLE8=One More Drink
TTITLE9=Highway Dreams
TTITLE10=Rock And Roll
TTITLE11=Winterland
TTITLE12=Everyone's Gone
EXTD=
EXTT0=
EXTT1=
EXTT2=
EXTT3=
EXTT4=
EXTT5=
EXTT6=
EXTT7=
EXTT8=
EXTT9=
EXTT10=
EXTT11=
EXTT12=
PLAYORDER=
